PathFileType	4	(X/Y/Z)	/Users/niels/Desktop/University/Third Semester/Perception and Action/Exam/Gymnastics Motion Tracking/Code for Gym Tracking/Scripts/Analyzed Data/Start Salto/st_salto_bad_id9_3_Sports2D/st_salto_bad_id9_3_Sports2D_px_person00.trc
DataRate	CameraRate	NumFrames	NumMarkers	Units	OrigDataRate	OrigDataStartFrame	OrigNumFrames
29.825581395348838	29.825581395348838	8	22	m	29.825581395348838	86	172
Frame#	Time	Hip			RHip			RKnee			RAnkle			RBigToe			RSmallToe			RHeel			LHip			LKnee			LAnkle			LBigToe			LSmallToe			LHeel			Neck			Head			Nose			RShoulder			RElbow			RWrist			LShoulder			LElbow			LWrist		
		X1	Y1	Z1	X2	Y2	Z2	X3	Y3	Z3	X4	Y4	Z4	X5	Y5	Z5	X6	Y6	Z6	X7	Y7	Z7	X8	Y8	Z8	X9	Y9	Z9	X10	Y10	Z10	X11	Y11	Z11	X12	Y12	Z12	X13	Y13	Z13	X14	Y14	Z14	X15	Y15	Z15	X16	Y16	Z16	X17	Y17	Z17	X18	Y18	Z18	X19	Y19	Z19	X20	Y20	Z20	X21	Y21	Z21	X22	Y22	Z22
86	2.883430799220273	1.1376547668363215	-0.19309039486467244	0.0	1.1420072554070835	-0.18544185536302935	0.0	0.9765569385835075	-0.13864443169245178	0.0	1.0312598156670112	-0.009994527729611461	0.0	0.9841179159597582	0.05947133614503403	0.0	1.022421909045177	0.008564743578694653	0.0	1.0409038213333217	-0.006657619769500756	0.0	1.131532371760542	-0.1939459593695341	0.0	0.9779413074352329	-0.14436471533857925	0.0	1.0280047233137068	-0.014593015945374788	0.0	0.975954864870731	-0.006104727271379081	0.0	0.9838081160706168	0.005293793936753295	0.0	1.0387741996589326	-0.017833800237757838	0.0	1.0000995886166986	-0.3035819017992762	0.0	0.9301890893796293	-0.3172601985342504	0.0	0.9615399993044316	-0.274284066764195	0.0	1.021476380609552	-0.28769658599558473	0.0	1.085692531194933	-0.18365840676242626	0.0	1.0559883889668862	-0.1198161998685852	0.0	1.0130375249536239	-0.3097285940152378	0.0	1.0568247154075436	-0.2041874872630191	0.0	0.9747020979414055	-0.17074036452264457	0.0
87	2.9169590643274854	1.147150443039486	-0.19942581831190032	0.0	1.1514243540107556	-0.1915286002541777	0.0	0.9909324848209237	-0.131960071026317	0.0	1.0565188755545947	-0.00901684414737937	0.0	1.0153201521850719	0.06133034518193548	0.0	1.0550558447250156	0.016443559901572924	0.0	1.0676336654382694	-0.006369504282933107	0.0	1.1443207177089472	-0.1988936270154436	0.0	0.9909073040373972	-0.14025615224229815	0.0	1.0535647983902694	-0.01413115523974864	0.0	1.0063185005940516	-0.006163103075057999	0.0	1.013548352503157	0.004950958303728822	0.0	1.0694795771219996	-0.018264907127108626	0.0	1.00214064551981	-0.29897072890867116	0.0	0.9316002132393073	-0.3060129371251164	0.0	0.9661984929914691	-0.2659893664887218	0.0	1.0231834653848	-0.2821155882484578	0.0	1.0952531787912705	-0.1845745919872466	0.0	1.071761754568766	-0.12043051404853526	0.0	1.015324775668451	-0.3104512221660651	0.0	1.0666650586843651	-0.2093045725882581	0.0	0.9885123125221287	-0.16154908668074427	0.0
88	2.950487329434698	1.1560904177937674	-0.20608322418388547	0.0	1.1602844130860264	-0.1977676198819996	0.0	1.0060509446905783	-0.1259348145182938	0.0	1.0813443224702746	-0.008823986736107103	0.0	1.0476592118080537	0.062381918521599626	0.0	1.084899298665927	0.02418128181299593	0.0	1.093530555394163	-0.007067655569271773	0.0	1.1555659707800574	-0.20426562961013472	0.0	1.0034479820445272	-0.13750011932895187	0.0	1.0778135678709069	-0.014278237451791988	0.0	1.0380815908118661	-0.00605439350924943	0.0	1.0443130203036042	0.004733117719583799	0.0	1.098595009778088	-0.01871714682414959	0.0	1.0045011539039184	-0.29420515948721954	0.0	0.9340352372794734	-0.29497080741445564	0.0	0.971681544936976	-0.258215614194604	0.0	1.0253091214595826	-0.27694273518225676	0.0	1.1046293237899125	-0.18604668830694465	0.0	1.087349815802071	-0.12196610651349156	0.0	1.0172948250976455	-0.3106333427189126	0.0	1.0775063838493488	-0.2147865100247915	0.0	1.0058444122419692	-0.15300991903323874	0.0
89	2.9840155945419102	1.1647203376538842	-0.21297465806369686	0.0	1.1688471599224595	-0.2043296543321172	0.0	1.022105738857618	-0.12075878379589826	0.0	1.1060377876990917	-0.009634943184103302	0.0	1.080125765132109	0.06252158826174287	0.0	1.1114304542237898	0.03044979450750458	0.0	1.1188904263598713	-0.009076344979478488	0.0	1.1653592242713766	-0.21027511469174803	0.0	1.0160856255684547	-0.135654587645952	0.0	1.1012824556340255	-0.015490797446343256	0.0	1.0706082683629583	-0.005764854381498892	0.0	1.0754665223913213	0.004805984264267414	0.0	1.1259921583343977	-0.019801999678825743	0.0	1.0072179127422698	-0.28926537073019487	0.0	0.937485392293245	-0.28410386398154913	0.0	0.9780323129578967	-0.2507675293332491	0.0	1.0280188263742835	-0.2722570169948741	0.0	1.113864505915115	-0.18798059277385676	0.0	1.1027945409723081	-0.12421097304659265	0.0	1.0191478118396677	-0.30959835368289734	0.0	1.0888949896704987	-0.2197739498479644	0.0	1.0275859534534528	-0.14656293486122773	0.0
90	3.017543859649123	1.1732157923557933	-0.2199897982613289	0.0	1.1773067417049952	-0.21115820070512692	0.0	1.0390452528285525	-0.11660731506322353	0.0	1.1310338861504594	-0.011737493827952214	0.0	1.1116835234675424	0.061011733868393224	0.0	1.1355437150935384	0.03375058465350554	0.0	1.1443255865844295	-0.01261535545332487	0.0	1.1740968077085698	-0.21669546886205124	0.0	1.0295280123105823	-0.13417671039859427	0.0	1.1247602000004475	-0.018186295537234772	0.0	1.103350417605289	-0.005527879680565479	0.0	1.1064034992949663	0.005112776870339191	0.0	1.1521693707992002	-0.022231735554281224	0.0	1.0103937984134495	-0.28419715026212056	0.0	0.9418687530978445	-0.27333213017749375	0.0	0.9851972135817	-0.24340281719567758	0.0	1.031296797822451	-0.268065068763341	0.0	1.1230479852904216	-0.19027174469059938	0.0	1.1181987699700668	-0.12688869449217427	0.0	1.0212600005370824	-0.3071710333458068	0.0	1.1001223174935584	-0.2235564437531096	0.0	1.0539492746922032	-0.14263696896932748	0.0
91	3.0510721247563355	1.1815415185297427	-0.22690341617130783	0.0	1.185642288524362	-0.2179389569674939	0.0	1.056332654059737	-0.11376123983703323	0.0	1.156257503596547	-0.015421574322656846	0.0	1.141430082574571	0.05684337678073636	0.0	1.1586566633981978	0.033120248759948	0.0	1.170002778717089	-0.01774028659577996	0.0	1.1821195541956866	-0.22289144122247276	0.0	1.0442046473377242	-0.13253448094573433	0.0	1.148465561484423	-0.02258264110488672	0.0	1.1358419407610607	-0.005807766194789799	0.0	1.1366424402731057	0.005408432726110844	0.0	1.177366310851644	-0.02653871800765972	0.0	1.0141709806522388	-0.27918719222670213	0.0	0.9469738267094838	-0.26268959449409723	0.0	0.9929590868343983	-0.23608974983443567	0.0	1.0349417186524728	-0.2644222716336199	0.0	1.132119171770695	-0.19276978638534273	0.0	1.1334269759620004	-0.12969735787121753	0.0	1.0239927927933248	-0.30360722631573667	0.0	1.1104082433636577	-0.22561867563956473	0.0	1.0834115382304652	-0.14089928317776804	0.0
92	3.0846003898635477	1.1895465568481787	-0.233576173176463	0.0	1.1937269783468354	-0.22446982840780175	0.0	1.0734115988053055	-0.11231051329339616	0.0	1.1813016033980346	-0.020833621324766655	0.0	1.1689062387955196	0.04941282094080562	0.0	1.1818530547180468	0.028807620313030934	0.0	1.195696419982684	-0.024417382904040053	0.0	1.1895026293883268	-0.22842929558408717	0.0	1.0600911940238218	-0.1304481610538074	0.0	1.1721355417635637	-0.02862466526049773	0.0	1.1676477902618276	-0.00725384615361478	0.0	1.1659465604846129	0.005269165575711601	0.0	1.201764894256443	-0.03297760442784102	0.0	1.0186672686225442	-0.2744611308210627	0.0	0.9525324503670054	-0.2522185150587765	0.0	1.0010935681492712	-0.22900940959951055	0.0	1.0388071846627407	-0.26137938900596636	0.0	1.1409067385623533	-0.19526805576392828	0.0	1.1482512326054417	-0.13245089635049712	0.0	1.0275097474147015	-0.2993288198178551	0.0	1.1191191245905665	-0.22588199455003896	0.0	1.1129488786093695	-0.1407974427175098	0.0
93	3.1181286549707603	1.197156689772788	-0.24013774485966966	0.0	1.2015445815733765	-0.23091785837336473	0.0	1.0902699919101349	-0.11196894045383393	0.0	1.2059919608504914	-0.028016736318154406	0.0	1.1945483985595082	0.039179810377404145	0.0	1.205749155838554	0.02190735016179535	0.0	1.221294579361823	-0.032689189022657626	0.0	1.1962243855163786	-0.23347217113149732	0.0	1.0769986237947775	-0.12802551456239453	0.0	1.1956041402255435	-0.03615375962975377	0.0	1.1983544644901953	-0.01054714724061298	0.0	1.1945462062628258	0.00411974835183812	0.0	1.2258662030803544	-0.04159360181354204	0.0	1.0238758745926728	-0.2700735185329684	0.0	0.9584281383018868	-0.24189404181936655	0.0	1.0095848257147546	-0.2223472657506725	0.0	1.042966913748137	-0.2588703109950284	0.0	1.149296020361958	-0.19758802170129752	0.0	1.162665286036118	-0.13519335749256298	0.0	1.0317408929566327	-0.2946947072047651	0.0	1.1260421181632088	-0.2249620194173019	0.0	1.1393765596977767	-0.1419162838822989	0.0
